<svg width="24" height="13" viewBox="0 0 24 13" fill="none" xmlns="http://www.w3.org/2000/svg">
<path d="M21.2984 11.6931C21.6893 12.0832 22.3225 12.0826 22.7126 11.6917C23.1028 11.3008 23.1022 10.6676 22.7113 10.2775L21.2984 11.6931ZM1.29707 10.2984C0.906923 10.6893 0.907541 11.3224 1.29845 11.7126C1.68935 12.1027 2.32252 12.1021 2.71266 11.7112L1.29707 10.2984ZM22.7113 10.2775L13.4093 0.993661L11.9965 2.40925L21.2984 11.6931L22.7113 10.2775ZM10.5809 0.99642L1.29707 10.2984L2.71266 11.7112L11.9965 2.40925L10.5809 0.99642ZM13.4093 0.993661C12.6275 0.213376 11.3612 0.214609 10.5809 0.99642L11.9965 2.40925L11.9965 2.40925L13.4093 0.993661Z" fill="#333333"/>
</svg>
